<svg xmlns="http://www.w3.org/2000/svg" viewBox="0 0 1600 1000">
<defs>
<linearGradient id="teal" x1="0" x2="1" y2=".7"><stop stop-color="#c7e5df"/><stop offset="1" stop-color="#438f91"/></linearGradient>
<linearGradient id="gold"><stop stop-color="#f0dfad"/><stop offset=".55" stop-color="#b99042"/><stop offset="1" stop-color="#f5e8c4"/></linearGradient>
<filter id="blur"><feGaussianBlur stdDeviation="12"/></filter>
</defs>
<path fill="#f5faf8" d="M0 0h1600v1000H0z"/>
<path fill="url(#teal)" d="M850 0h750v1000H530C660 775 795 444 850 0"/>
<path fill="#d9eee8" opacity=".6" d="M1600 95C1050 250 1000 560 780 1000h170C1070 645 1280 475 1600 410z"/>
<path fill="#fff" opacity=".55" d="M0 0h1100C810 230 810 660 420 1000H0z"/>
<g fill="none" stroke="url(#gold)" stroke-width="3"><path d="M590 1000C750 410 920-180 1520 40"/><path d="M1020 1000C1090 690 1300 480 1600 445"/><path d="M-60 740C160 690 355 755 485 1040"/></g>
<g filter="url(#blur)" fill="#477d4c" opacity=".4">
<path d="M-30 1000Q25 855 190 755Q165 875-30 1000"/><path d="M-30 860Q70 722 150 735Q123 835-30 860"/>
<path d="M-20 947Q150 910 245 968Q143 1020-20 947"/><path d="M5 920Q-40 775 5 725Q85 840 5 920"/>
</g></svg>